<?xml version="1.0" encoding="UTF-8"?>
<svg id="Layer_2" data-name="Layer 2" xmlns="http://www.w3.org/2000/svg" viewBox="0 0 102.76 102.76">
  <g id="Layer_1-2" data-name="Layer 1">
    <circle cx="51.38" cy="51.38" r="51.38" style="fill: #cedc00; stroke-width: 0px;"/>
    <g>
      <path d="M74.61,49.87c-.1-9.73-2.49-18.33-3.31-20.5-.83-2.18-4.46-2.59-5.59-2.59h-27.29c-1.13,0-4.76.41-5.59,2.59-.83,2.17-3.21,10.77-3.31,20.5-.1,9.22-1.21,19.18,5.45,20.2,0,.02,0,.04,0,.07v2.91c0,1.52.64,2.75,1.44,2.75h2.95c.79,0,1.44-1.23,1.44-2.75v-2.89h22.54v2.89c0,1.52.64,2.75,1.44,2.75h2.95c.79,0,1.44-1.23,1.44-2.75v-2.91s0-.05,0-.07c6.67-1.02,5.55-10.98,5.45-20.2ZM37.11,66.88c-1.18,0-2.15-.96-2.15-2.15s.96-2.15,2.15-2.15,2.15.96,2.15,2.15-.96,2.15-2.15,2.15ZM67.01,66.88c-1.18,0-2.15-.96-2.15-2.15s.96-2.15,2.15-2.15,2.15.96,2.15,2.15-.96,2.15-2.15,2.15ZM71.42,47.84c0,2.83-8.66,5.13-19.36,5.14-10.7-.02-19.36-2.31-19.36-5.14h-.04c.03-.55.07-1.16.13-1.86,1.01-11.14,1.87-12.09,3.47-13.49,2.74-2.41,15.81-1.93,15.81-1.93,0,0,13.07-.48,15.81,1.93,1.59,1.41,2.46,2.35,3.47,13.49.06.7.1,1.31.13,1.86h-.04Z" style="fill: #002a3a; stroke-width: 0px;"/>
      <path d="M57.3,31.22h-10.47c-.6,0-1.09.49-1.09,1.09s.49,1.1,1.09,1.1h10.47c.61,0,1.1-.49,1.1-1.1s-.49-1.09-1.1-1.09Z" style="fill: #002a3a; stroke-width: 0px;"/>
    </g>
  </g>
</svg>