<?xml version="1.0" encoding="UTF-8"?>
<svg id="Layer_2" data-name="Layer 2" xmlns="http://www.w3.org/2000/svg" viewBox="0 0 102.76 102.76">
  <g id="Layer_1-2" data-name="Layer 1">
    <g>
      <circle cx="51.38" cy="51.38" r="51.38" style="fill: #cedc00; stroke-width: 0px;"/>
      <g>
        <path d="M28.68,26.22c.79-1.37,3.14-1.51,5.23-.31,20.7,11.95,31.48,18.18,52.18,30.13,2.07,1.19,3.12,3.3,2.33,4.67l-.46.79c-23.21-13.4-36.51-21.08-59.74-34.49l.46-.79Z" style="fill: #002a3a; stroke-width: 0px;"/>
        <path d="M77.7,76.47L20.41,43.4l8.58-14.86,57.29,33.07-8.58,14.86ZM29.55,34.17c.52-.91.16-1.71-1.27-2.54l-4.25,7.36,2.05,1.18c1.16-2.01,2.32-4.02,3.47-6.01ZM38.07,37.9c.99-1.72-5.62-5.54-6.61-3.82l-6.33,10.96c2.2,1.27,4.41,2.54,6.61,3.82,2.11-3.65,4.22-7.31,6.33-10.96ZM44.65,42.88c1.05-1.82-4.69-5.13-5.74-3.31l-3.47,6.01,5.74,3.31,3.47-6.01ZM51.34,46.74c1.05-1.82-4.69-5.13-5.74-3.31l-3.47,6.01,5.74,3.31c1.16-2.01,2.32-4.02,3.47-6.01ZM58.02,50.61c1.05-1.82-4.69-5.13-5.74-3.31l-3.47,6.01,5.74,3.31,3.47-6.01ZM64.73,54.48c1.05-1.82-4.69-5.13-5.74-3.31l-3.47,6.01,5.74,3.31,3.47-6.01ZM71.42,58.34c1.05-1.82-4.69-5.13-5.74-3.31l-3.47,6.01c1.91,1.1,3.83,2.21,5.74,3.31,1.16-2.01,2.32-4.02,3.47-6.01ZM80.01,62.11c.99-1.72-5.64-5.55-6.63-3.83-2.11,3.65-4.22,7.31-6.33,10.96l6.63,3.83c2.11-3.65,4.22-7.31,6.33-10.96ZM83.95,63.77c-1.45-.84-2.32-.75-2.85.16-1.15,1.99-2.31,4-3.47,6.01l2.07,1.19,4.25-7.36Z" style="fill: #002a3a; stroke-width: 0px;"/>
        <rect x="11.91" y="60.64" width="73.23" height="1.67" rx=".34" ry=".34" transform="translate(59.8 138.97) rotate(-150)" style="fill: #002a3a; stroke-width: 0px;"/>
      </g>
    </g>
  </g>
</svg>