<?xml version="1.0" encoding="UTF-8"?>
<svg id="Layer_2" data-name="Layer 2" xmlns="http://www.w3.org/2000/svg" viewBox="0 0 368.5 368.5">
  <g id="Layer_1-2" data-name="Layer 1">
    <circle cx="184.25" cy="184.25" r="184.25" style="fill: #cedc00; stroke-width: 0px;"/>
    <g>
      <path d="M183.73,122.6l47.52,18.9v-21.98c0-2.04-1.65-3.69-3.69-3.69h-7.75v-9.49c0-2.04-1.66-3.7-3.69-3.7h-30.35v-22.35c0-2.04-1.65-3.69-3.69-3.69h-.77c-2.04,0-3.7,1.65-3.7,3.69v22.35h-30.34c-2.04,0-3.69,1.65-3.69,3.7v9.49h-7.76c-2.04,0-3.69,1.65-3.69,3.69v21.98l47.52-18.9c1.32-.52,2.78-.52,4.1,0Z" style="fill: #002a3a; stroke-width: 0px;"/>
      <path d="M115.05,182.33l9.73,32.23c2.72-1.18,6.14-2.12,10.8-2.12,3.06,0,5.6.41,7.75,1.02l3.12-17.04h70.42l3.27,17.86c2.62-1.04,5.86-1.84,10.14-1.84,3.45,0,6.21.53,8.54,1.27l9.23-30.4,5.24-20.46c.69-2.7-.73-5.49-3.32-6.51l-66.25-26.36c-1.32-.52-2.78-.52-4.1,0l-66.25,26.36c-2.58,1.03-4.01,3.81-3.31,6.51l4.98,19.47Z" style="fill: #002a3a; stroke-width: 0px;"/>
      <path d="M261.94,224.63c-2.58,1.61-4.13,2.57-7.95,2.57s-5.37-.97-7.95-2.57c-3.26-2.03-7.72-4.81-15.76-4.81s-12.49,2.78-15.75,4.81c-2.57,1.61-4.13,2.57-7.94,2.57s-5.35-.97-7.93-2.57c-3.25-2.03-7.71-4.81-15.74-4.81s-12.49,2.78-15.74,4.81c-2.58,1.61-4.14,2.57-7.94,2.57s-5.36-.97-7.93-2.57c-3.25-2.03-7.72-4.81-15.75-4.81s-12.48,2.78-15.74,4.81c-2.56,1.61-4.12,2.57-7.93,2.57s-5.36-.97-7.93-2.57c-3.25-2.03-7.71-4.81-15.74-4.81v14.76c3.81,0,5.36.97,7.93,2.57,3.26,2.03,7.71,4.81,15.75,4.81s12.48-2.78,15.74-4.81c2.57-1.6,4.13-2.57,7.93-2.57s5.36.97,7.93,2.57c3.25,2.03,7.71,4.81,15.74,4.81s12.49-2.78,15.74-4.81c2.58-1.6,4.13-2.57,7.94-2.57s5.35.97,7.93,2.57c3.26,2.03,7.71,4.81,15.74,4.81s12.49-2.78,15.75-4.81c2.57-1.6,4.13-2.57,7.94-2.57s5.37.97,7.95,2.57c3.25,2.03,7.71,4.81,15.75,4.81s12.49-2.78,15.75-4.8c2.58-1.61,4.13-2.58,7.95-2.58v-14.76c-8.04,0-12.5,2.78-15.76,4.81Z" style="fill: #002a3a; stroke-width: 0px;"/>
      <path d="M253.99,254.99c-3.82,0-5.37-.97-7.95-2.57-3.26-2.04-7.72-4.81-15.76-4.81s-12.49,2.78-15.75,4.81c-2.57,1.6-4.13,2.57-7.94,2.57s-5.35-.97-7.93-2.57c-3.25-2.04-7.71-4.81-15.74-4.81s-12.49,2.78-15.74,4.81c-2.58,1.6-4.14,2.57-7.94,2.57s-5.36-.97-7.93-2.57c-3.25-2.04-7.72-4.81-15.75-4.81s-12.48,2.78-15.74,4.81c-2.56,1.6-4.12,2.57-7.93,2.57s-5.36-.97-7.93-2.57c-3.25-2.04-7.71-4.81-15.74-4.81v14.77c3.81,0,5.36.96,7.93,2.57,3.26,2.03,7.71,4.81,15.75,4.81s12.48-2.78,15.74-4.81c2.57-1.6,4.13-2.57,7.93-2.57s5.36.96,7.93,2.57c3.25,2.03,7.71,4.81,15.74,4.81s12.49-2.78,15.74-4.81c2.58-1.6,4.13-2.57,7.94-2.57s5.35.96,7.93,2.57c3.26,2.03,7.71,4.81,15.74,4.81s12.49-2.78,15.75-4.81c2.57-1.6,4.13-2.57,7.94-2.57s5.37.96,7.95,2.57c3.25,2.03,7.71,4.81,15.75,4.81s12.49-2.78,15.75-4.8c2.58-1.61,4.13-2.57,7.95-2.57v-14.77c-8.04,0-12.5,2.78-15.76,4.81-2.58,1.6-4.13,2.57-7.95,2.57Z" style="fill: #002a3a; stroke-width: 0px;"/>
    </g>
  </g>
</svg>