<?xml version="1.0" encoding="UTF-8"?>
<svg id="Layer_2" data-name="Layer 2" xmlns="http://www.w3.org/2000/svg" viewBox="0 0 102.76 102.76">
  <g id="Layer_1-2" data-name="Layer 1">
    <circle cx="51.38" cy="51.38" r="51.38" style="fill: #cedc00; stroke-width: 0px;"/>
    <g>
      <path d="M51.13,23.48c0,1.21-.98,2.19-2.19,2.19s-2.19-.98-2.19-2.19.98-2.19,2.19-2.19,2.19.98,2.19,2.19" style="fill: #002a3a; stroke-width: 0px;"/>
      <path d="M57.37,23.48c0,1.21-.98,2.19-2.19,2.19s-2.19-.98-2.19-2.19.98-2.19,2.19-2.19,2.19.98,2.19,2.19" style="fill: #002a3a; stroke-width: 0px;"/>
      <path d="M67.86,78.38l-6.71-9.02c-.64-.86-1.85-1.03-2.71-.4-.86.64-1.04,1.85-.4,2.71l.48.64h-12.46l.48-.64c.64-.86.46-2.07-.4-2.71-.86-.64-2.07-.46-2.71.4l-6.71,9.02c-.64.86-.46,2.07.4,2.71.35.26.75.38,1.15.38.59,0,1.18-.27,1.56-.78l3.35-4.5h18.22l3.35,4.5c.38.51.96.78,1.56.78.4,0,.81-.12,1.15-.38.86-.64,1.04-1.85.4-2.71" style="fill: #002a3a; stroke-width: 0px;"/>
      <path d="M63.22,26.85h-22.07c-2.94,0-5.33,2.39-5.33,5.33v29.49c0,2.94,2.39,5.33,5.33,5.33h22.07c2.94,0,5.33-2.38,5.33-5.33v-29.49c0-2.94-2.38-5.33-5.33-5.33ZM39.53,34.13c0-1.76,1.43-3.2,3.19-3.2h18.91c1.76,0,3.2,1.43,3.2,3.2v14.38c0,1.76-1.43,3.2-3.2,3.2h-18.91c-1.76,0-3.19-1.43-3.19-3.2v-14.38ZM45.17,62.88h-5.15c-.66,0-1.2-.54-1.2-1.2s.54-1.2,1.2-1.2h5.15c.66,0,1.2.54,1.2,1.2s-.54,1.2-1.2,1.2ZM63.7,62.88h-5.15c-.66,0-1.2-.54-1.2-1.2s.54-1.2,1.2-1.2h5.15c.66,0,1.2.54,1.2,1.2s-.54,1.2-1.2,1.2Z" style="fill: #002a3a; stroke-width: 0px;"/>
    </g>
  </g>
</svg>